<svg width="80" height="80" viewBox="0 0 80 80" fill="none" xmlns="http://www.w3.org/2000/svg">
<mask id="mask0_152_308" style="mask-type:alpha" maskUnits="userSpaceOnUse" x="0" y="0" width="80" height="80">
<rect x="0.75" y="0.75" width="78.5" height="78.5" fill="#D9D9D9" stroke="#F8EFEA" stroke-width="1.5"/>
</mask>
<g mask="url(#mask0_152_308)">
<path d="M10.75 46.6667V20.7501H29.25V46.6667C29.25 48.6781 28.6734 50.4516 27.5215 52.0132C26.3596 53.5882 24.8867 54.6746 23.0901 55.2906L22.5833 55.4644V56.0001V66.6667V67.4167H23.3333H29.25V72.5834H10.75V67.4167H16.6667H17.4167V66.6667V56.0001V55.4644L16.9099 55.2906C15.1133 54.6746 13.6404 53.5882 12.4785 52.0132C11.3266 50.4516 10.75 48.6781 10.75 46.6667ZM15.9167 36.6667V37.4167H16.6667H23.3333H24.0833V36.6667V26.6667V25.9167H23.3333H16.6667H15.9167V26.6667V36.6667ZM24.0833 43.3334V42.5834H23.3333H16.6667H15.9167V43.3334V46.6667C15.9167 47.8001 16.3082 48.7856 17.0947 49.5721C17.8812 50.3586 18.8667 50.7501 20 50.7501C21.1333 50.7501 22.1188 50.3586 22.9053 49.5721C23.6918 48.7856 24.0833 47.8001 24.0833 46.6667V43.3334ZM52.5833 16.6667V17.4167H53.3333H56.6667H57.4167V16.6667V13.3334V12.5834H56.6667H53.3333H52.5833V13.3334V16.6667ZM42.5833 40.0001V40.7501H43.3333H66.6667H67.4167V40.0001V34.8334V34.3104L66.9259 34.1297L63.7593 32.963C61.7736 32.2314 60.2322 31.0939 59.1048 29.5566C57.9791 28.0215 57.4167 26.2887 57.4167 24.3334V23.3334V22.5834H56.6667H53.3333H52.5833V23.3334V24.3334C52.5833 26.2887 52.0209 28.0215 50.8952 29.5566C49.7678 31.0939 48.2264 32.2314 46.2407 32.963L43.0741 34.1297L42.5833 34.3104V34.8334V40.0001ZM42.5833 66.6667V67.4167H43.3333H66.6667H67.4167V66.6667V60.0001V59.2501H66.6667H43.3333H42.5833V60.0001V66.6667ZM42.5833 53.3334V54.0834H43.3333H66.6667H67.4167V53.3334V46.6667V45.9167H66.6667H43.3333H42.5833V46.6667V53.3334ZM43.3333 72.5834C41.7005 72.5834 40.3214 72.0108 39.1553 70.8447C37.9893 69.6787 37.4167 68.2996 37.4167 66.6667V34.8334C37.4167 33.5442 37.785 32.4085 38.5219 31.4013C39.2677 30.382 40.2311 29.6524 41.428 29.2031C41.4286 29.2028 41.4293 29.2026 41.43 29.2023L44.5856 28.0397C44.5868 28.0393 44.588 28.0389 44.5892 28.0384C45.4694 27.7235 46.1898 27.2449 46.6871 26.57C47.1877 25.8906 47.4167 25.0739 47.4167 24.1667V10.0001C47.4167 9.24451 47.664 8.64671 48.1553 8.15541C48.6466 7.66412 49.2444 7.41675 50 7.41675H60C60.7556 7.41675 61.3534 7.66412 61.8447 8.15541C62.336 8.64671 62.5833 9.24451 62.5833 10.0001V24.1667C62.5833 25.0739 62.8123 25.8906 63.3129 26.57C63.8102 27.2449 64.5306 27.7235 65.4108 28.0384C65.412 28.0389 65.4132 28.0393 65.4144 28.0397L68.57 29.2023C68.5706 29.2026 68.5712 29.2028 68.5718 29.203C69.7688 29.6523 70.7322 30.382 71.4781 31.4013C72.215 32.4085 72.5833 33.5442 72.5833 34.8334V66.6667C72.5833 68.2996 72.0107 69.6787 70.8447 70.8448C69.6786 72.0108 68.2995 72.5834 66.6667 72.5834H43.3333Z" fill="#231F20" stroke="#F8EFEA" stroke-width="1.5"/>
</g>
</svg>
