<svg width="80" height="80" viewBox="0 0 80 80" fill="none" xmlns="http://www.w3.org/2000/svg">
<mask id="mask0_152_305" style="mask-type:alpha" maskUnits="userSpaceOnUse" x="0" y="0" width="80" height="80">
<rect x="0.75" y="0.75" width="78.5" height="78.5" fill="#D9D9D9" stroke="#F8EFEA" stroke-width="1.5"/>
</mask>
<g mask="url(#mask0_152_305)">
<path d="M10.75 56.6666V55.9166H10H4.08337V19.9999C4.08337 18.3671 4.65601 16.9879 5.82204 15.8219C6.98806 14.6559 8.3672 14.0833 10 14.0833H55.9167V26.6666V27.4166H56.6667H66.2917L75.9167 40.2499V55.9166H70H69.25V56.6666C69.25 59.2477 68.3552 61.4174 66.553 63.2196C64.7509 65.0218 62.5812 65.9166 60 65.9166C57.4189 65.9166 55.2492 65.0218 53.447 63.2196C51.6448 61.4174 50.75 59.2477 50.75 56.6666V55.9166H50H30H29.25V56.6666C29.25 59.2477 28.3552 61.4174 26.553 63.2196C24.7509 65.0218 22.5812 65.9166 20 65.9166C17.4189 65.9166 15.2492 65.0218 13.447 63.2196C11.6448 61.4174 10.75 59.2477 10.75 56.6666ZM9.25004 49.9999V50.7499H10H12.6667H12.99L13.212 50.5149C14.0965 49.5783 15.109 48.8257 16.2521 48.2541C17.3603 47.7 18.6049 47.4166 20 47.4166C21.3952 47.4166 22.6398 47.7 23.748 48.2541C24.8911 48.8257 25.9036 49.5783 26.7881 50.5149L27.0101 50.7499H27.3334H50H50.75V49.9999V19.9999V19.2499H50H10H9.25004V19.9999V49.9999ZM55.9167 43.3333V44.0833H56.6667H70.8334H72.3334L71.4334 42.8833L63.9334 32.8833L63.7084 32.5833H63.3334H56.6667H55.9167V33.3333V43.3333ZM20 60.7499C21.1334 60.7499 22.1189 60.3584 22.9054 59.5719C23.6919 58.7854 24.0834 57.7999 24.0834 56.6666C24.0834 55.5333 23.6919 54.5477 22.9054 53.7613C22.1189 52.9748 21.1334 52.5833 20 52.5833C18.8667 52.5833 17.8812 52.9748 17.0947 53.7613C16.3082 54.5477 15.9167 55.5333 15.9167 56.6666C15.9167 57.7999 16.3082 58.7854 17.0947 59.5719C17.8812 60.3584 18.8667 60.7499 20 60.7499ZM60 60.7499C61.1334 60.7499 62.1189 60.3584 62.9054 59.5719C63.6919 58.7854 64.0834 57.7999 64.0834 56.6666C64.0834 55.5333 63.6919 54.5477 62.9054 53.7613C62.1189 52.9748 61.1334 52.5833 60 52.5833C58.8667 52.5833 57.8812 52.9748 57.0947 53.7613C56.3082 54.5477 55.9167 55.5333 55.9167 56.6666C55.9167 57.7999 56.3082 58.7854 57.0947 59.5719C57.8812 60.3584 58.8667 60.7499 60 60.7499Z" fill="#231F20" stroke="#F8EFEA" stroke-width="1.5"/>
</g>
</svg>
