<svg width="152" height="109" viewBox="0 0 152 109" fill="none" xmlns="http://www.w3.org/2000/svg">
<g clip-path="url(#clip0_428_564)">
<path d="M4.07431 94.8399H0V94.1936H9.74093V94.8399H5.81121V108.782H4.07431V94.8399Z" fill="#F8EFEA"/>
<path d="M12.2434 94.1936H20.4124V94.8399H14.0007V100.967H19.1093V101.613H14.0007V108.136H20.6183V108.782H12.2417V94.1936H12.2434Z" fill="#F8EFEA"/>
<path d="M24.3609 97.2983C24.3609 100.778 31.0822 99.9246 31.0822 105.114C31.0822 107.594 29.0969 108.99 26.8429 108.99C24.5888 108.99 23.182 107.761 22.2922 106.78L22.624 106.468C23.4303 107.301 24.878 108.239 26.5945 108.239C28.4148 108.239 29.6141 107.114 29.6141 105.508C29.6141 101.361 22.8928 102.069 22.8928 97.6514C22.8928 95.38 24.4442 94.0034 27.0283 94.0034C28.7448 94.0034 29.7995 94.8366 30.6263 95.7331L30.2946 96.0657C29.4253 95.212 28.3927 94.7114 27.11 94.7114C25.4547 94.7114 24.3592 95.6697 24.3592 97.2949L24.3609 97.2983Z" fill="#F8EFEA"/>
<path d="M39.4792 108.99C35.5086 108.99 33.1304 106.051 33.1304 101.486C33.1304 96.9211 35.5086 94.0051 39.4792 94.0051C43.4497 94.0051 45.8279 96.964 45.8279 101.509C45.8279 106.053 43.4497 108.99 39.4792 108.99ZM39.4792 108.343C42.56 108.343 43.9669 105.655 43.9669 101.507C43.9669 97.3583 42.56 94.6497 39.4792 94.6497C36.3983 94.6497 34.9915 97.4423 34.9915 101.464C34.9915 105.695 36.3779 108.342 39.4792 108.342V108.343Z" fill="#F8EFEA"/>
<path d="M48.8884 94.1936H52.4864C55.7952 94.1936 57.7601 95.4639 57.7601 98.2788C57.7601 100.425 56.4774 101.654 54.2437 102.052L58.6702 108.784H56.6441L52.4048 102.198H50.6474V108.784H48.8901V94.1953L48.8884 94.1936ZM50.6457 94.8399V101.551H52.301C54.7422 101.551 55.9211 100.488 55.9211 98.3216C55.9211 96.1547 54.7626 94.8416 52.301 94.8416H50.6457V94.8399Z" fill="#F8EFEA"/>
<path d="M66.424 108.99C62.4534 108.99 60.0752 106.051 60.0752 101.486C60.0752 96.9211 62.4534 94.0051 66.424 94.0051C70.3945 94.0051 72.7728 96.964 72.7728 101.509C72.7728 106.053 70.3945 108.99 66.424 108.99ZM66.424 108.343C69.5048 108.343 70.9117 105.655 70.9117 101.507C70.9117 97.3583 69.5048 94.6497 66.424 94.6497C63.3431 94.6497 61.9363 97.4423 61.9363 101.464C61.9363 105.695 63.3227 108.342 66.424 108.342V108.343Z" fill="#F8EFEA"/>
<path d="M76.5989 97.2983C76.5989 100.778 83.3202 99.9246 83.3202 105.114C83.3202 107.594 81.335 108.99 79.0809 108.99C76.8269 108.99 75.42 107.761 74.5303 106.78L74.862 106.468C75.6684 107.301 77.1161 108.239 78.8325 108.239C80.6528 108.239 81.8521 107.114 81.8521 105.508C81.8521 101.361 75.1308 102.069 75.1308 97.6514C75.1308 95.38 76.6823 94.0034 79.2663 94.0034C80.9828 94.0034 82.0376 94.8366 82.8643 95.7331L82.5326 96.0657C81.6633 95.212 80.6307 94.7114 79.348 94.7114C77.6928 94.7114 76.5972 95.6697 76.5972 97.2949L76.5989 97.2983Z" fill="#F8EFEA"/>
<path d="M88.303 99.8525H89.4343C91.4535 99.8525 92.4504 101.056 92.4504 102.638C92.4504 104.221 91.4212 105.393 89.4343 105.393H88.303V99.8525ZM88.9698 100.098V105.148H89.4734C91.0997 105.148 91.7206 104.111 91.7206 102.631C91.7206 101.152 91.0453 100.098 89.4734 100.098H88.9698Z" fill="#F8EFEA"/>
<path d="M93.6038 99.8525H96.7067V100.098H94.2723V102.426H96.2134V102.671H94.2723V105.148H96.7867V105.393H93.6055V99.8525H93.6038Z" fill="#F8EFEA"/>
<path d="M108.861 108.251C110.454 108.251 111.427 107.75 112.543 106.833L112.852 107.166C111.509 108.52 110.102 109 108.261 109C104.496 109 101.768 106.228 101.768 101.519C101.768 96.8097 104.498 94.0154 108.283 94.0154C110.185 94.0154 111.468 94.5571 112.667 95.8497L112.337 96.1823C111.199 95.1828 110.187 94.7645 108.8 94.7645C105.801 94.7645 103.61 97.2245 103.61 101.517C103.61 105.81 105.803 108.249 108.863 108.249L108.861 108.251Z" fill="#F8EFEA"/>
<path d="M124.432 94.2039H125.28V103.583C125.28 107.167 123.459 108.981 120.295 108.981C117.131 108.981 115.29 107.167 115.29 103.583V94.2039H116.966V103.499C116.966 106.125 118.082 107.937 120.751 107.937C123.42 107.937 124.432 106.123 124.432 103.499V94.2039Z" fill="#F8EFEA"/>
<path d="M129.333 94.2039L133.552 102.144L137.771 94.2039H138.598L134.007 102.811V108.792H132.27V103.041L127.45 94.2039H129.332H129.333Z" fill="#F8EFEA"/>
<path d="M145.651 109C141.68 109 139.302 106.062 139.302 101.497C139.302 96.9314 141.68 94.0154 145.651 94.0154C149.622 94.0154 152 96.9743 152 101.519C152 106.063 149.622 109 145.651 109ZM145.651 108.354C148.732 108.354 150.139 105.666 150.139 101.517C150.139 97.3685 148.732 94.66 145.651 94.66C142.57 94.66 141.163 97.4525 141.163 101.474C141.163 105.705 142.55 108.352 145.651 108.352V108.354Z" fill="#F8EFEA"/>
<mask id="mask0_428_564" style="mask-type:luminance" maskUnits="userSpaceOnUse" x="33" y="0" width="86" height="86">
<path d="M75.9999 85.9084C99.5117 85.9084 118.572 66.7013 118.572 43.0081C118.572 19.315 99.5117 0.10791 75.9999 0.10791C52.4881 0.10791 33.428 19.315 33.428 43.0081C33.428 66.7013 52.4881 85.9084 75.9999 85.9084Z" fill="white"/>
</mask>
<g mask="url(#mask0_428_564)">
<path d="M107.512 55.3529C106.425 55.2792 105.328 55.322 104.236 55.3392C101.606 55.3837 99.5629 56.3797 98.498 58.958C97.9842 60.2026 97.1319 61.082 95.7336 61.1369C95.3423 61.1523 94.7486 60.8969 94.5665 60.5798C93.5271 58.766 91.8957 57.818 89.9547 57.6757C85.1539 57.3226 80.3413 57.1135 75.5321 56.93C74.149 56.8769 72.7337 56.9849 71.3727 57.242C70.1734 57.4683 69.3177 57.1975 68.6917 56.2906C69.3483 54.6552 69.9914 53.1671 70.5425 51.6449C71.1295 50.0197 72.2777 49.2346 73.933 49.0871C74.9078 48.9997 75.8842 48.9277 76.8539 48.806C79.2543 48.5026 80.656 47.0917 80.6713 44.678C80.6884 42.0945 81.7771 40.3597 84.106 39.3414C86.0998 38.4705 87.8537 37.2619 89.2759 35.5733C90.3153 34.3391 91.678 34.0476 93.1733 34.5431C94.063 34.8379 94.9884 35.1396 95.7642 35.6453C98.5439 37.4556 101.47 38.0934 104.695 37.1385C106.058 36.7356 107.351 37.0339 108.411 37.9494C110.585 39.8282 113.091 40.0117 115.753 39.5934C116.636 39.4545 117.521 39.3156 118.41 39.2591C118.368 38.7705 118.318 38.2819 118.261 37.7985C118.23 37.8019 118.199 37.8054 118.165 37.8088C116.444 37.9408 114.727 38.3162 113.014 38.2854C112.031 38.2682 110.883 37.8756 110.112 37.2654C107.924 35.5339 105.602 35.1893 102.999 35.9385C101.66 36.3242 100.317 36.2779 99.0389 35.6299C98.9045 35.5613 98.7684 35.4962 98.6494 35.4053C98.6017 35.3693 98.6 35.2733 98.5303 35.0625C100.476 34.5276 102.414 33.9893 104.353 33.4613C108.348 32.3728 112.342 31.2876 116.336 30.2025C116.439 30.175 116.532 30.1493 116.621 30.127C116.484 29.6933 116.342 29.2613 116.192 28.8327C109.778 30.5453 103.372 32.2819 96.955 33.9808C96.5552 34.087 96.0721 33.9979 95.6587 33.8882C95.0786 33.7339 94.5376 33.439 93.9626 33.2659C91.7783 32.6059 89.7233 32.7842 88.1854 34.6442C86.7105 36.4288 84.909 37.4848 82.6566 37.8774C81.6972 38.0436 80.7649 38.3814 79.8242 38.6539C79.2781 38.8116 78.829 38.8922 78.5653 38.1705C78.3101 37.4711 78.5653 37.1368 79.142 36.8076C81.6989 35.3505 84.2387 33.8608 86.7837 32.3813C86.8483 32.3436 86.9164 32.3076 86.9793 32.2665C87.4675 31.9442 88.2416 31.6785 87.7687 30.9499C87.6343 30.7425 86.6697 30.8676 86.2325 31.111C83.662 32.5425 81.1409 34.0648 78.5874 35.5288C78.254 35.7208 77.7879 35.9162 77.4578 35.8271C76.6838 35.6213 76.5732 34.7899 77.1992 34.1556C79.3495 31.9733 81.5134 29.8065 83.6705 27.6327C83.8559 27.4459 84.1332 27.2727 84.1877 27.0499C84.2574 26.7602 84.2268 26.3762 84.0788 26.1327C84.0108 26.0213 83.5157 26.0624 83.2929 26.1824C82.9696 26.3556 82.706 26.6504 82.4406 26.9162C80.4094 28.9493 78.3816 30.9825 76.3606 33.0259C75.903 33.4888 75.5032 33.847 74.8346 33.3002C74.1916 32.7739 74.5131 32.3265 74.804 31.8225C76.3368 29.1653 77.8865 26.5167 79.3682 23.8287C79.5639 23.4739 79.3955 22.915 79.3955 22.4504C78.9923 22.6836 78.4207 22.8138 78.2114 23.1653C76.6617 25.7676 75.1868 28.4162 73.6778 31.0442C73.3886 31.5482 73.21 32.2133 72.3441 31.843C71.5037 31.4848 71.6619 30.9122 71.8405 30.2487C72.6282 27.319 73.4209 24.391 74.1405 21.4424C74.1524 21.3927 74.1592 21.3413 74.1592 21.2881C74.1592 21.1836 74.1405 21.0721 74.1099 20.959C74.0793 20.8458 74.0368 20.7293 73.9925 20.6127C73.9262 20.4378 73.8547 20.2613 73.8088 20.0915C73.688 20.2184 73.5417 20.3384 73.4005 20.4584C73.1641 20.6607 72.9429 20.8647 72.8715 21.115C72.0158 24.103 71.2298 27.1133 70.4371 30.1202C70.2942 30.6636 70.2057 31.135 69.4334 31.0287C68.7087 30.9293 68.4977 30.571 68.5011 29.8922C68.5182 26.9676 68.5079 24.0447 68.5045 21.1201C68.5045 20.7413 68.5607 20.3333 68.4416 19.9921C68.3514 19.735 68.0486 19.4607 67.7883 19.3938C67.654 19.3578 67.329 19.723 67.2338 19.963C67.1283 20.2287 67.1776 20.5613 67.1759 20.863C67.1742 23.5973 67.1759 26.3316 67.1759 29.0642C67.1759 29.4053 67.2695 29.8047 67.1283 30.0756C66.9327 30.4476 66.6094 30.8625 66.242 31.0099C65.6466 31.2499 65.4186 30.7939 65.274 30.2402C64.5068 27.3053 63.7293 24.3739 62.9026 21.4561C62.7495 20.9178 62.8107 19.9013 61.8819 20.1481C61.0007 20.3813 61.4242 21.2196 61.5774 21.8041C62.2987 24.5556 63.0506 27.2967 63.7923 30.0413C63.8416 30.2247 63.8859 30.4099 63.9437 30.5899C64.1359 31.207 63.9301 31.5825 63.3313 31.843C62.7222 32.107 62.4501 31.8379 62.1711 31.3459C60.6961 28.7419 59.2008 26.1499 57.7123 23.5544C57.6 23.3573 57.5269 23.0933 57.3567 22.9818C57.0267 22.7658 56.6422 22.6373 56.2799 22.4744C56.2476 22.8756 56.0587 23.3573 56.2136 23.6641C56.8787 24.9824 57.6408 26.2493 58.3757 27.5316C59.2416 29.0436 60.099 30.5607 60.9904 32.0573C61.3307 32.6282 61.2371 33.0036 60.7149 33.3979C60.179 33.8025 59.849 33.5779 59.4594 33.187C57.2734 30.991 55.0738 28.8087 52.8775 26.6213C52.4897 26.2356 52.0797 25.5653 51.5336 26.2116C51.3601 26.4173 51.634 27.2642 51.9419 27.5847C53.8506 29.5785 55.8291 31.5053 57.7837 33.4545C58.078 33.7476 58.4897 33.9928 58.6343 34.3476C58.7687 34.6802 58.7585 35.2391 58.5578 35.4945C58.374 35.7259 57.7446 35.8699 57.4894 35.7293C54.8849 34.2825 52.3264 32.7482 49.727 31.291C49.169 30.979 48.3898 30.1665 47.8829 31.0545C47.4049 31.8928 48.4664 32.1276 48.9921 32.4448C51.4179 33.9053 53.8693 35.3213 56.3139 36.7476C56.8736 37.0734 57.4571 37.3014 57.1033 38.2048C56.7426 39.1254 56.154 38.7362 55.6164 38.5974C52.7721 37.8602 49.9345 37.0973 47.0935 36.3448C46.8401 36.2779 46.5577 36.1339 46.3297 36.1905C46.0473 36.2608 45.719 36.4528 45.5829 36.6911C45.5149 36.8111 45.7751 37.2294 45.9827 37.3734C46.2498 37.5585 46.6087 37.6202 46.9336 37.7076C49.7355 38.4636 52.5356 39.2196 55.3408 39.9585C55.9839 40.1282 56.4466 40.3511 56.3496 41.1739C56.2459 42.0534 55.6386 41.8957 55.0908 41.8957C52.1886 41.8991 49.2881 41.8957 46.3859 41.9025C46.0116 41.9025 45.6135 41.8888 45.2733 42.0122C45.0368 42.0997 44.6949 42.4562 44.7323 42.614C44.7953 42.8814 45.0811 43.1814 45.3447 43.2911C45.6373 43.4145 46.0116 43.3511 46.3501 43.3511C49.2523 43.3545 52.1528 43.3511 55.0551 43.358C55.6079 43.358 56.2221 43.25 56.336 44.0934C56.4466 44.9145 55.9499 45.1271 55.3119 45.3037C52.1188 46.1865 48.9342 47.0951 45.7394 47.966C45.5064 48.0294 45.1355 47.9334 44.9501 47.7705C43.3493 46.3631 41.7757 44.9231 40.0354 43.3494C40.8604 43.3494 41.6617 43.4265 42.4391 43.3202C42.8848 43.2585 43.2897 42.9002 43.7133 42.6757C43.2829 42.4168 42.8559 41.9419 42.4204 41.9334C39.4825 41.8802 36.5429 41.8939 33.4484 41.8974C33.4399 42.2659 33.4348 42.6362 33.4348 43.0082C33.4348 43.226 33.4399 43.4437 33.4433 43.6614C33.4484 43.6614 33.4518 43.6614 33.4569 43.6614C36.8797 43.7797 39.9724 44.7722 42.4613 47.2803C43.3135 48.1391 44.1607 49.0066 45.0658 49.8071C45.867 50.5151 46.721 50.9711 47.9271 50.7877C49.6045 50.5306 51.3227 51.554 51.799 53.2906C52.9184 57.3603 56.3088 58.0666 59.7469 57.8677C61.7679 57.7512 63.777 57.3826 65.7861 57.0895C66.8714 56.93 67.7458 57.3089 68.3906 58.1232C70.1156 60.302 72.3339 61.0495 75.0626 60.9586C78.1043 60.8575 81.1579 61.0443 84.2047 61.1438C84.7065 61.1609 85.2016 61.3752 85.7681 61.7849C85.3717 61.9906 84.9957 62.3078 84.5772 62.3849C82.6923 62.7261 80.804 63.0638 78.9021 63.2832C75.6529 63.6569 72.3594 63.7546 69.1493 64.3375C67.4804 64.6409 65.9647 65.7569 64.3537 66.4461C64.0134 66.5918 63.4384 66.6501 63.1884 66.4615C60.7098 64.5878 57.9522 64.1249 54.9445 64.5398C53.5478 64.7318 52.2549 64.2329 51.1475 63.3689C50.137 62.5803 49.237 61.6409 48.1942 60.902C46.7924 59.9078 45.3771 58.8586 43.8171 58.1917C42.907 57.8026 41.6294 57.866 40.6461 58.1643C39.2358 58.5912 37.8919 59.1826 36.4068 58.7883C36.6211 59.3335 36.8474 59.8717 37.0821 60.4049C37.157 60.4083 37.2352 60.41 37.3169 60.4049C38.1641 60.362 39.0725 60.2626 39.8295 59.9129C42.0547 58.8877 44.0246 59.3043 45.8432 60.7683C47.0187 61.7146 48.1415 62.7295 49.2523 63.7512C51.0794 65.4329 53.1821 66.2301 55.6675 65.9455C57.9488 65.6832 60.0837 66.0329 62.0163 67.4009C62.661 67.8569 62.906 68.2375 62.644 69.0758C62.0945 70.8278 62.9468 72.693 64.5476 73.6513C66.8476 75.0295 69.4453 75.2815 72.0039 75.7375C74.1065 76.1113 76.2211 76.5347 78.2438 77.2033C79.9586 77.769 81.3841 78.8867 81.8009 80.853C82.0969 82.2519 81.5509 83.4227 80.3073 84.1067C80.0436 84.2507 79.7612 84.3656 79.4771 84.4633C78.766 84.7102 77.9699 85.2433 77.3592 85.0822C76.8335 84.9433 76.5273 83.9936 76.1054 83.4159C74.2171 80.8273 71.4697 79.9153 68.4858 79.4867C66.771 79.2416 65.0461 79.0684 63.3381 78.7924C61.3052 78.4633 59.5717 77.5256 58.1546 75.9981C57.3057 75.0844 56.4296 74.193 55.5365 73.3221C54.0071 71.8307 52.1733 71.3884 50.1097 71.8101C49.7032 71.8924 49.2983 71.9815 48.89 72.0467C47.6703 72.2404 46.9319 71.829 46.5781 70.6118C46.2702 69.5592 46.1171 68.4621 45.8602 67.3941C45.0777 64.1215 41.2092 61.6632 37.9276 62.2049C38.1556 62.6626 38.3903 63.1169 38.6336 63.5661C39.1865 63.6278 39.7411 63.7169 40.2786 63.8558C42.6552 64.4643 44.1471 65.9335 44.6166 68.4089C44.8004 69.3758 44.9943 70.3512 45.3158 71.277C45.8704 72.8747 46.9149 73.5415 48.6008 73.5021C49.0142 73.4935 49.4531 73.5038 49.8324 73.3684C52.1341 72.5404 53.8268 73.5175 55.3715 75.129C56.4925 76.2981 57.6034 77.5101 58.8776 78.4941C61.1963 80.2821 64.056 80.337 66.8051 80.7861C68.8244 81.1153 70.8198 81.705 72.7609 82.3719C73.523 82.6342 74.2069 83.3439 74.7342 84.0056C75.117 84.4856 75.5372 85.5107 75.3177 85.7833C75.2837 85.8245 75.2429 85.8639 75.2038 85.9033C75.4726 85.9085 75.7413 85.9136 76.0101 85.9136C77.4629 85.9136 78.8987 85.8399 80.3141 85.6959C81.971 85.0239 83.1466 83.8633 83.2963 81.8559C83.4715 79.4953 82.1854 77.8581 80.2869 76.629C77.7606 74.9953 74.8788 74.6627 72.0073 74.2273C70.2653 73.9615 68.5352 73.5673 66.8289 73.1181C66.1603 72.9432 65.5156 72.537 64.9559 72.1101C63.9199 71.3181 63.566 70.0495 64.2873 68.9815C64.8963 68.0798 65.7486 67.2226 66.6877 66.6946C68.9741 65.4089 71.5752 65.2804 74.1252 65.0369C77.3813 64.7284 80.6424 64.4661 83.8866 64.0701C84.7474 63.9655 85.649 63.5695 86.3618 63.0621C86.8364 62.7243 87.2804 61.934 87.2379 61.3855C87.2005 60.9192 86.5098 60.2403 86.0028 60.1255C84.4752 59.7758 82.8999 59.534 81.3348 59.4723C78.7779 59.3729 76.2126 59.4706 73.6523 59.4398C73.0076 59.4312 72.3662 59.2546 71.7232 59.1535C71.7283 59.0095 71.7351 58.8638 71.7402 58.7197C72.4309 58.6306 73.1198 58.5003 73.8122 58.4557C78.5959 58.1437 83.3626 58.3237 88.1106 59.0077C89.0003 59.1363 89.9223 59.1363 90.7814 59.3695C91.8804 59.6678 92.799 60.2952 93.3723 61.5175C92.1917 61.9238 91.0876 62.1895 90.0891 62.6729C88.3368 63.5232 86.7156 64.6821 84.9124 65.3764C83.6229 65.8718 82.131 65.8769 80.7207 66.0004C78.4003 66.2009 76.0544 66.1992 73.7544 66.5215C72.5227 66.6946 71.3115 67.2689 70.1819 67.8449C68.8295 68.5358 68.6253 69.5901 69.43 70.8861C70.9372 73.3118 73.375 73.8707 75.9472 74.1295C78.4496 74.3815 80.9929 74.397 83.2622 75.7547C85.5945 77.1501 87.8095 78.6604 88.6873 81.4273C88.8931 82.0753 88.8591 82.8416 88.774 83.5324C88.7536 83.697 88.7162 83.8445 88.6686 83.985C89.2368 83.8067 89.7982 83.6147 90.3544 83.4142C90.5263 81.1204 89.6212 79.3873 88.2841 77.877C86.127 75.441 83.4545 73.7438 80.2375 73.137C78.2846 72.7684 76.2772 72.6912 74.3089 72.393C72.897 72.1787 71.65 71.5667 70.7722 70.3581C70.3707 69.8044 70.3367 69.2987 71.0172 68.9507C73.7612 67.5484 76.6787 67.3649 79.7425 67.6015C79.4924 70.629 81.3382 71.9541 83.6637 72.9741C86.1763 74.0747 88.6992 75.1718 91.1268 76.4473C92.8841 77.3696 93.9524 79.0153 94.718 80.8479C94.8115 81.0707 94.8745 81.2747 94.9051 81.465C95.3559 81.2404 95.8033 81.009 96.2439 80.769C95.0939 77.2376 92.4588 75.1564 89.2538 73.6787C87.5781 72.9055 85.7919 72.369 84.1485 71.541C83.15 71.037 82.1139 70.3324 81.4794 69.4409C80.7037 68.3489 81.3433 67.4712 82.6855 67.2912C85.7596 66.8781 88.8234 67.0906 91.9042 67.1781C94.0035 67.2381 96.1384 66.6724 98.2275 66.2386C100.134 65.8444 101.979 65.0506 103.896 64.8141C105.337 64.6358 106.869 64.9666 108.329 65.2426C109.469 65.4569 110.585 65.8204 111.839 66.1958C112.116 65.7604 112.385 65.3181 112.647 64.8724C111.519 64.5792 110.374 64.3392 109.27 63.9706C106.024 62.8872 102.816 62.9986 99.6616 64.2586C96.1861 65.6455 92.6153 66.0861 88.9203 65.5769C88.7349 65.5512 88.5461 65.5324 88.3641 65.4912C88.3011 65.4775 88.2535 65.4021 87.8231 65.0266C90.0057 64.2946 91.9433 63.6363 93.8844 62.9986C94.2399 62.8821 94.6159 62.7912 94.9867 62.7672C97.4824 62.6009 99.1937 61.4335 100.134 59.0266C100.781 57.3706 102.29 56.894 103.915 56.8323C105.267 56.7809 106.624 56.822 107.979 56.8323C111.655 56.8649 114.778 55.5963 117.395 53.1157C117.604 52.2449 117.788 51.3654 117.942 50.474C115.226 53.5426 112.015 55.6666 107.524 55.3597L107.512 55.3529ZM51.9147 50.7226C50.5282 49.5054 48.8798 49.2003 47.0782 49.3614C47.0748 49.2328 47.0714 49.1043 47.068 48.9757C49.1503 48.4083 51.2308 47.8391 53.313 47.2751C54.2181 47.03 55.1146 46.7283 56.0349 46.5843C56.3547 46.5345 56.9655 46.8191 57.0335 47.066C57.1305 47.414 56.974 48.0654 56.7018 48.2454C55.3885 49.1163 54.0054 49.8826 52.6309 50.6574C52.4335 50.7689 52.044 50.8374 51.9164 50.726L51.9147 50.7226ZM54.4903 54.8934C54.3303 54.8026 54.1585 54.7357 54.0241 54.6209C53.9136 54.5266 53.8404 54.3826 53.7673 54.2523C52.7125 52.3871 52.7551 52.2243 54.5804 51.1494C55.4888 50.6146 56.4075 50.0968 57.3074 49.55C57.8433 49.2243 58.255 49.2431 58.6632 49.7848C59.0528 50.3026 58.9031 50.6403 58.5016 51.0431C57.384 52.1643 56.302 53.3197 55.1911 54.4477C55.0125 54.6277 54.7539 54.7272 54.4886 54.8917L54.4903 54.8934ZM59.3335 56.0043C58.8657 56.7037 57.2598 56.5923 55.6964 55.7009C57.1594 54.2934 58.4931 52.982 59.8728 51.7254C60.0123 51.5986 60.5498 51.6894 60.7132 51.8626C60.9479 52.1111 61.2133 52.6271 61.1044 52.8534C60.5873 53.9403 60.0004 55.0049 59.3318 56.0043H59.3335ZM63.9284 54.5677C63.7447 56.126 63.1765 56.4174 60.9343 56.1226C61.4123 55.2792 61.8376 54.5797 62.2102 53.8529C62.4858 53.3146 62.8958 53.0677 63.3636 53.45C63.6647 53.6969 63.9692 54.2129 63.9267 54.5677H63.9284ZM65.2587 55.5654C65.3216 54.7083 65.3489 53.9832 66.3185 54.2694C66.6213 54.3586 67.1079 54.8197 67.0619 54.9483C66.7438 55.8363 65.9885 55.5723 65.2587 55.5654ZM66.9173 52.8431C61.5723 52.3529 57.5609 47.894 57.6272 41.8031C57.8892 38.1071 59.8643 34.7831 63.9692 33.1168C67.8904 31.5259 71.6534 32.1242 74.7768 35.0745C77.992 38.1122 78.795 41.8819 77.4663 46.1197C77.2129 46.9305 76.7705 47.4071 75.8808 47.462C74.9452 47.5203 74.0078 47.6214 73.0858 47.786C71.0325 48.1511 69.7651 49.4146 69.1119 51.386C68.576 53.0026 68.5488 52.994 66.919 52.8449L66.9173 52.8431Z" fill="#F8EFEA"/>
<path d="M74.0588 19.0526C75.0948 19.3406 75.0148 18.2143 75.1799 17.6006C76.7398 11.8337 78.2811 6.06169 79.7866 0.279377C79.3154 0.238234 78.8408 0.202233 78.3645 0.174805C76.8657 5.88169 75.3381 11.58 73.8546 17.2903C73.7015 17.8766 73.0959 18.7852 74.0588 19.0526Z" fill="#F8EFEA"/>
<path d="M85.2951 24.0189C85.0008 24.3189 84.7354 25.1177 84.8988 25.32C85.4261 25.9732 85.8922 25.3526 86.2716 24.9703C91.416 19.7931 96.5586 14.6125 101.684 9.41651C101.812 9.28622 101.926 9.17137 102.033 9.06508C101.705 8.80794 101.371 8.55765 101.034 8.31079C100.638 8.61422 100.248 8.92451 99.8997 9.27422C95.0105 14.1685 90.1384 19.08 85.2934 24.0189H85.2951Z" fill="#F8EFEA"/>
<path d="M61.4974 19.0681C62.5675 18.7596 61.9619 17.9007 61.8003 17.2818C60.6418 12.8487 59.4628 8.42238 58.2482 4.00464C57.8297 4.19835 57.4163 4.39893 57.0063 4.60464C58.1342 8.95038 59.2859 13.291 60.4887 17.6161C60.6452 18.1784 61.3052 19.1213 61.4974 19.0664V19.0681Z" fill="#F8EFEA"/>
<path d="M79.7188 20.5834C79.6507 20.8868 79.8583 21.252 79.9434 21.5897C80.253 21.4491 80.6953 21.3943 80.8518 21.1543C81.6088 19.9765 82.2995 18.756 82.997 17.5405C85.7784 12.6891 88.5564 7.83419 91.3259 2.97588C90.8887 2.80617 90.4464 2.64331 90.0007 2.4856C86.76 8.10505 83.5481 13.7417 80.3295 19.3748C80.105 19.7691 79.8141 20.1565 79.7188 20.5834Z" fill="#F8EFEA"/>
<path d="M89.6944 29.0881C89.5634 29.1635 89.3797 29.2183 89.3219 29.3349C89.1262 29.7206 88.9765 30.1286 88.8081 30.5281C89.2096 30.5229 89.6876 30.6584 89.9989 30.4869C91.8498 29.4703 93.6616 28.3818 95.4869 27.3189C100.607 24.3343 105.731 21.3583 110.84 18.3549C110.571 17.9691 110.296 17.5869 110.013 17.2114C108.943 17.8697 107.987 18.4594 107.021 19.0234C101.249 22.3869 95.4699 25.7349 89.6944 29.0898V29.0881Z" fill="#F8EFEA"/>
<path d="M67.1658 16.2293C67.1658 16.4195 67.1488 16.6116 67.1692 16.7984C67.2322 17.3573 66.9464 18.2213 67.8259 18.2298C68.7343 18.2384 68.4757 17.359 68.4774 16.8104C68.4978 11.4652 68.5183 6.12178 68.4757 0.776611C68.0368 0.855469 67.6013 0.942898 67.1675 1.03547C67.1726 6.0995 67.1675 11.1652 67.1675 16.2293H67.1658Z" fill="#F8EFEA"/>
<path d="M54.5277 20.7669C54.7505 21.1458 55.3493 21.3018 55.7729 21.5607C55.7508 21.0858 55.8852 20.5252 55.6828 20.1515C54.3711 17.7258 52.9932 15.3378 51.6237 12.9446C50.9484 11.7635 50.2594 10.5892 49.5568 9.38745C49.1928 9.67888 48.8338 9.97545 48.48 10.2789C50.5061 13.7692 52.4794 17.2903 54.526 20.7687L54.5277 20.7669Z" fill="#F8EFEA"/>
<path d="M49.5789 25.1949C49.8187 25.4315 50.4022 25.3115 50.8258 25.3578C50.7153 24.9686 50.7204 24.4698 50.4754 24.2109C48.844 22.488 47.1309 20.8423 45.4995 19.1177C44.5927 18.1577 43.737 17.1463 42.8405 16.104C42.4918 16.5394 42.1498 16.9817 41.8181 17.4326C44.4379 20.0743 46.9897 22.6595 49.5789 25.1966V25.1949Z" fill="#F8EFEA"/>
<path d="M37.1859 25.6269C39.7886 27.1372 42.3914 28.6475 44.9976 30.1527C45.3549 30.3601 45.7138 30.6275 46.1017 30.6978C46.3926 30.7509 46.7311 30.5332 47.0493 30.4355C47.1666 30.2075 47.2823 29.9795 47.3997 29.7515C47.0169 29.5801 46.6172 29.4412 46.2565 29.2338C43.3968 27.5898 40.5508 25.9235 37.6809 24.3C37.4768 24.7218 37.2811 25.1486 37.0923 25.5789C37.1246 25.5943 37.1569 25.6115 37.1876 25.6286L37.1859 25.6269Z" fill="#F8EFEA"/>
<path d="M41.8829 36.3396C42.4613 36.4956 43.0397 36.6568 43.7491 36.8522C43.955 36.715 44.4245 36.535 44.4177 36.3773C44.4024 36.079 44.1676 35.7327 43.9244 35.5219C43.7151 35.3402 43.3715 35.3076 43.0823 35.2305C40.2583 34.4676 37.4327 33.7116 34.6087 32.9487C34.5015 33.3979 34.3995 33.8487 34.3059 34.3013C36.8322 34.9785 39.3584 35.659 41.8829 36.3379V36.3396Z" fill="#F8EFEA"/>
</g>
<path d="M75.9999 86.0164C64.6003 86.0164 53.8829 81.5421 45.821 73.4198C37.7609 65.2975 33.3208 54.4957 33.3208 43.0082C33.3208 31.5207 37.7609 20.7207 45.821 12.5966C53.8812 4.4726 64.6003 0 75.9999 0C87.3995 0 98.1169 4.47431 106.179 12.5966C114.241 20.719 118.679 31.5207 118.679 43.0082C118.679 54.4957 114.239 65.2958 106.179 73.4198C98.1186 81.5439 87.3995 86.0164 75.9999 86.0164ZM75.9999 1.02858C53.0289 1.02858 34.3415 19.8601 34.3415 43.0082C34.3415 66.1563 53.0289 84.9879 75.9999 84.9879C98.9708 84.9879 117.658 66.1563 117.658 43.0082C117.658 19.8601 98.9708 1.02858 75.9999 1.02858Z" fill="#F8EFEA"/>
</g>
<defs>
<clipPath id="clip0_428_564">
<rect width="152" height="109" fill="white"/>
</clipPath>
</defs>
</svg>
