<svg width="80" height="80" viewBox="0 0 80 80" fill="none" xmlns="http://www.w3.org/2000/svg">
<mask id="mask0_152_306" style="mask-type:alpha" maskUnits="userSpaceOnUse" x="0" y="0" width="80" height="80">
<rect x="0.75" y="0.75" width="78.5" height="78.5" fill="#D9D9D9" stroke="#F8EFEA" stroke-width="1.5"/>
</mask>
<g mask="url(#mask0_152_306)">
<path d="M15.822 22.4887L15.2916 21.9584L15.822 22.4887C16.988 21.3227 18.3671 20.7501 20 20.7501H26.6666H27.4166V20.0001C27.4166 16.5339 28.6421 13.5853 31.1136 11.1137C33.5852 8.64216 36.5338 7.41675 40 7.41675C43.4662 7.41675 46.4147 8.64216 48.8863 11.1137C51.3579 13.5853 52.5833 16.5339 52.5833 20.0001V20.7501H53.3333H60C61.6328 20.7501 63.012 21.3227 64.178 22.4887C65.344 23.6548 65.9166 25.0339 65.9166 26.6667V66.6667C65.9166 68.2996 65.344 69.6787 64.178 70.8448C63.012 72.0108 61.6328 72.5834 60 72.5834H20C18.3671 72.5834 16.988 72.0108 15.822 70.8447C14.656 69.6787 14.0833 68.2996 14.0833 66.6667V26.6667C14.0833 25.0339 14.656 23.6548 15.822 22.4887ZM19.25 66.6667V67.4167H20H60H60.75V66.6667V26.6667V25.9167H60H53.3333H52.5833V26.6667V33.3334C52.5833 34.089 52.3359 34.6868 51.8447 35.1781C51.3534 35.6694 50.7556 35.9167 50 35.9167C49.2444 35.9167 48.6466 35.6694 48.1553 35.1781C47.664 34.6868 47.4166 34.089 47.4166 33.3334V26.6667V25.9167H46.6666H33.3333H32.5833V26.6667V33.3334C32.5833 34.089 32.3359 34.6868 31.8446 35.1781C31.3534 35.6694 30.7555 35.9167 30 35.9167C29.2444 35.9167 28.6466 35.6694 28.1553 35.1781C27.664 34.6868 27.4166 34.089 27.4166 33.3334V26.6667V25.9167H26.6666H20H19.25V26.6667V66.6667ZM32.5833 20.0001V20.7501H33.3333H46.6666H47.4166V20.0001C47.4166 17.9663 46.6837 16.2065 45.2386 14.7614C43.7936 13.3163 42.0338 12.5834 40 12.5834C37.9662 12.5834 36.2064 13.3163 34.7613 14.7614C33.3162 16.2065 32.5833 17.9663 32.5833 20.0001Z" fill="#231F20" stroke="#F8EFEA" stroke-width="1.5"/>
</g>
</svg>
