<svg width="80" height="80" viewBox="0 0 80 80" fill="none" xmlns="http://www.w3.org/2000/svg">
<mask id="mask0_152_307" style="mask-type:alpha" maskUnits="userSpaceOnUse" x="0" y="0" width="80" height="80">
<rect x="0.75" y="0.75" width="78.5" height="78.5" fill="#D9D9D9" stroke="#F8EFEA" stroke-width="1.5"/>
</mask>
<g mask="url(#mask0_152_307)">
<path d="M69.25 40.0742V45.9166H66.6667H65.9167V46.6666V65.9166H60.75V46.6666V45.9166H60H46.6667H45.9167V46.6666V65.9166H14.0833V46.6666V45.9166H13.3333H10.75V40.0742L13.9482 24.0833H66.0518L69.25 40.0742ZM19.25 59.9999V60.7499H20H40H40.75V59.9999V46.6666V45.9166H40H20H19.25V46.6666V59.9999ZM16.0979 39.8528L15.9185 40.7499H16.8333H63.1667H64.0815L63.9021 39.8528L61.9021 29.8528L61.7815 29.2499H61.1667H18.8333H18.2185L18.0979 29.8528L16.0979 39.8528ZM14.0833 19.2499V14.0833H65.9167V19.2499H14.0833Z" fill="#231F20" stroke="#F8EFEA" stroke-width="1.5"/>
</g>
</svg>
